<?xml version="1.0" encoding="utf-8"?>
<!-- Generator: Adobe Illustrator 15.1.0, SVG Export Plug-In  -->
<!DOCTYPE svg PUBLIC "-//W3C//DTD SVG 1.1//EN" "http://www.w3.org/Graphics/SVG/1.1/DTD/svg11.dtd" [
	<!ENTITY ns_flows "http://ns.adobe.com/Flows/1.0/">
]>
<svg version="1.1"
	 xmlns="http://www.w3.org/2000/svg" xmlns:xlink="http://www.w3.org/1999/xlink" xmlns:a="http://ns.adobe.com/AdobeSVGViewerExtensions/3.0/"
	 x="0px" y="0px" width="373px" height="52px" viewBox="-3.529 -7.181 373 52"
	 overflow="visible" enable-background="new -3.529 -7.181 373 52" xml:space="preserve">
<defs>
</defs>
<path fill="#FFFFFF" d="M182.415,39.434c-8.925,0-16.16-8.408-16.16-19.007c0-1.111,0.079-2.2,0.231-3.259
	c3.73-0.212,9.565-0.505,14.347-0.567c0.135,8.649-0.841,20.427-0.841,20.427h4.848c0,0-0.977-11.781-0.841-20.431
	c7.71,0.086,18.393,0.8,18.393,0.8c-1.462-9.719-9.849-17.355-19.977-17.355c-11.156,0-20.201,9.229-20.201,20.386
	s9.045,20.386,20.201,20.386c10.128,0,18.515-7.636,19.977-17.355h-4.015C197.153,32.616,190.473,39.434,182.415,39.434z
	 M182.415,1.42c6.661,0,12.38,4.6,14.854,11.431c-3.747,0.204-8.893,0.442-13.159,0.493c0.226-4.431,0.729-9.518,0.729-9.518h-4.848
	c0,0,0.503,5.084,0.729,9.516c-4.317-0.06-9.472-0.304-13.153-0.506C170.045,6.012,175.761,1.42,182.415,1.42z"/>
<path fill="#FFFFFF" d="M8.073,17.204H3.036c0.061-2.085,0.092-4.807,0.092-8.165c0-3.588-0.031-6.501-0.092-8.74h4.991
	c3.112,0,5.543,0.652,7.291,1.955c1.81,1.35,2.714,3.312,2.714,5.888c0,2.852-0.851,5.068-2.553,6.647
	C13.731,16.399,11.262,17.204,8.073,17.204z M5.175,1.909c-0.031,1.135-0.046,3.358-0.046,6.67c0,3.22,0.015,5.543,0.046,6.969
	c0.26,0.015,1.157,0.023,2.691,0.023c5.351,0,8.027-2.338,8.027-7.015c0-2.192-0.721-3.849-2.162-4.968
	c-1.441-1.119-3.496-1.679-6.164-1.679H5.175z"/>
<path fill="#FFFFFF" d="M24.38,9.039c0,3.358,0.038,6.08,0.115,8.165h-2.208c0.061-2.085,0.092-4.807,0.092-8.165
	c0-3.588-0.031-6.501-0.092-8.74h2.208C24.418,2.538,24.38,5.451,24.38,9.039z"/>
<path fill="#FFFFFF" d="M28.773,8.993c0-2.745,0.866-4.96,2.599-6.647C32.997,0.782,35.021,0,37.444,0
	c2.545,0,4.619,0.774,6.222,2.323c1.602,1.549,2.403,3.619,2.403,6.21c0,2.745-0.851,4.945-2.553,6.601
	c-1.61,1.549-3.634,2.323-6.072,2.323c-2.561,0-4.646-0.767-6.256-2.3S28.773,11.569,28.773,8.993z M43.838,8.74
	c0-2.223-0.606-3.987-1.817-5.29c-1.166-1.242-2.691-1.863-4.577-1.863c-1.901,0-3.442,0.629-4.623,1.886
	c-1.196,1.303-1.794,3.059-1.794,5.267c0,2.239,0.613,4.002,1.84,5.29c1.165,1.242,2.691,1.863,4.577,1.863
	c1.917,0,3.461-0.636,4.635-1.909C43.251,12.711,43.838,10.963,43.838,8.74z"/>
<path fill="#FFFFFF" d="M58.535,17.457c-2.515,0-4.608-0.767-6.279-2.3c-1.718-1.564-2.576-3.573-2.576-6.026
	c0-2.806,0.912-5.052,2.737-6.739C54.149,0.797,56.342,0,58.995,0c1.886,0,3.519,0.269,4.899,0.805l-0.667,1.61
	c-1.196-0.537-2.545-0.805-4.048-0.805c-2.177,0-3.91,0.614-5.198,1.84c-1.365,1.273-2.047,3.036-2.047,5.29
	c0,2.07,0.671,3.776,2.013,5.117c1.341,1.342,3.032,2.013,5.071,2.013c1.518,0,2.921-0.375,4.209-1.127l0.713,1.541
	C62.36,17.066,60.559,17.457,58.535,17.457z"/>
<path fill="#FFFFFF" d="M76.958,1.909c-0.951,0-3.373,0-7.268,0c-0.031,1.334-0.046,3.281-0.046,5.842
	c3.266,0,5.627-0.03,7.084-0.092V9.43c-1.38-0.077-3.741-0.115-7.084-0.115c0,2.806,0.015,4.892,0.046,6.256
	c3.802,0,6.501-0.031,8.096-0.092l-0.782,1.725h-9.453c0.061-2.085,0.092-4.807,0.092-8.165c0-3.588-0.031-6.501-0.092-8.74h9.407
	V1.909z"/>
<path fill="#FFFFFF" d="M91.516,0.966L90.85,2.507c-1.074-0.613-2.3-0.92-3.68-0.92c-1.196,0-2.113,0.223-2.749,0.667
	c-0.637,0.445-0.955,1.028-0.955,1.748c0,0.644,0.199,1.188,0.598,1.633c0.445,0.506,1.227,1.02,2.346,1.541l1.955,0.897
	c1.303,0.598,2.234,1.257,2.795,1.978C91.719,10.772,92,11.692,92,12.811c0,1.35-0.563,2.461-1.69,3.335s-2.503,1.311-4.128,1.311
	c-2.009,0-3.788-0.383-5.336-1.15l0.713-1.61c1.564,0.797,3.082,1.196,4.554,1.196c1.119,0,2.024-0.265,2.714-0.793
	s1.035-1.162,1.035-1.897c0-0.782-0.204-1.426-0.61-1.932s-1.131-0.989-2.173-1.449l-2.254-1.012c-2.3-1.027-3.45-2.53-3.45-4.508
	c0-1.196,0.529-2.212,1.587-3.048C84.019,0.418,85.375,0,87.032,0C88.826,0,90.321,0.322,91.516,0.966z"/>
<path fill="#FFFFFF" d="M105.73,1.909c-0.95,0-3.373,0-7.268,0c-0.031,1.334-0.046,3.281-0.046,5.842
	c3.266,0,5.627-0.03,7.084-0.092V9.43c-1.381-0.077-3.742-0.115-7.084-0.115c0,2.806,0.015,4.892,0.046,6.256
	c3.802,0,6.501-0.031,8.096-0.092l-0.782,1.725h-9.453c0.062-2.085,0.092-4.807,0.092-8.165c0-3.588-0.03-6.501-0.092-8.74h9.407
	V1.909z"/>
<path fill="#FFFFFF" d="M117.368,8.993c0-2.745,0.866-4.96,2.6-6.647C121.592,0.782,123.616,0,126.039,0
	c2.546,0,4.619,0.774,6.222,2.323c1.602,1.549,2.403,3.619,2.403,6.21c0,2.745-0.851,4.945-2.553,6.601
	c-1.61,1.549-3.634,2.323-6.072,2.323c-2.561,0-4.646-0.767-6.256-2.3S117.368,11.569,117.368,8.993z M132.432,8.74
	c0-2.223-0.605-3.987-1.816-5.29c-1.166-1.242-2.691-1.863-4.577-1.863c-1.901,0-3.442,0.629-4.623,1.886
	c-1.196,1.303-1.794,3.059-1.794,5.267c0,2.239,0.613,4.002,1.84,5.29c1.166,1.242,2.691,1.863,4.577,1.863
	c1.917,0,3.462-0.636,4.635-1.909C131.846,12.711,132.432,10.963,132.432,8.74z"/>
<path fill="#FFFFFF" d="M139.01,9.039c0-3.588-0.03-6.501-0.092-8.74h9.407v1.61c-0.95,0-3.373,0-7.268,0
	c-0.031,1.334-0.046,3.412-0.046,6.233c3.266,0,5.627-0.031,7.084-0.092v1.748c-1.043-0.062-3.404-0.092-7.084-0.092
	c0,2.975,0.037,5.474,0.115,7.498h-2.209C138.98,15.119,139.01,12.397,139.01,9.039z"/>
<path fill="#FFFFFF" d="M8.303,40.296H6.095C3.642,33.074,1.61,27.409,0,23.299h2.346c0.736,1.871,2.407,6.839,5.014,14.904
	c1.104-3.128,2.461-6.678,4.071-10.649c-0.46-1.334-1.004-2.752-1.633-4.255h2.369c1.641,4.646,3.296,9.614,4.968,14.904
	c1.166-3.649,2.775-8.617,4.83-14.904h2.231c-1.426,3.833-3.465,9.499-6.118,16.997H15.87c-1.503-4.646-2.699-8.142-3.588-10.488
	C10.779,33.519,9.453,37.015,8.303,40.296z"/>
<path fill="#FFFFFF" d="M26.013,31.993c0-2.745,0.866-4.96,2.599-6.647C30.237,23.782,32.261,23,34.684,23
	c2.545,0,4.619,0.774,6.222,2.323c1.602,1.549,2.403,3.619,2.403,6.21c0,2.745-0.851,4.945-2.553,6.601
	c-1.61,1.549-3.634,2.323-6.072,2.323c-2.561,0-4.646-0.767-6.256-2.3S26.013,34.569,26.013,31.993z M41.078,31.74
	c0-2.223-0.606-3.987-1.817-5.29c-1.166-1.242-2.691-1.863-4.577-1.863c-1.901,0-3.442,0.629-4.623,1.886
	c-1.196,1.303-1.794,3.059-1.794,5.267c0,2.239,0.613,4.002,1.84,5.29c1.165,1.242,2.691,1.863,4.577,1.863
	c1.917,0,3.461-0.636,4.635-1.909C40.491,35.711,41.078,33.963,41.078,31.74z"/>
<path fill="#FFFFFF" d="M49.196,32.89c0,3.22,0.038,5.658,0.115,7.314h-2.208c0.061-2.085,0.092-4.807,0.092-8.165
	c0-3.603-0.031-6.517-0.092-8.74h4.025c2.162,0,3.833,0.387,5.014,1.161c1.181,0.774,1.771,1.906,1.771,3.393
	c0,1.089-0.314,2.024-0.943,2.806c-0.629,0.782-1.472,1.35-2.53,1.702c1.549,2.852,3.036,5.359,4.462,7.521l-2.185,0.667
	c-1.533-2.545-2.936-5.098-4.209-7.659C51.389,32.906,50.285,32.906,49.196,32.89z M51.014,24.909h-1.771
	c-0.031,1.012-0.046,3.144-0.046,6.394c0.276,0.015,0.897,0.023,1.863,0.023c3.143,0,4.715-1.127,4.715-3.381
	C55.774,25.921,54.188,24.909,51.014,24.909z"/>
<path fill="#FFFFFF" d="M70.793,40.457c-2.515,0-4.608-0.767-6.279-2.3c-1.718-1.564-2.576-3.573-2.576-6.026
	c0-2.806,0.912-5.052,2.737-6.739C66.408,23.797,68.601,23,71.253,23c1.886,0,3.519,0.269,4.899,0.805l-0.667,1.61
	c-1.196-0.537-2.545-0.805-4.048-0.805c-2.177,0-3.91,0.614-5.198,1.84c-1.365,1.273-2.047,3.036-2.047,5.29
	c0,2.07,0.671,3.776,2.013,5.117c1.341,1.342,3.032,2.013,5.071,2.013c1.518,0,2.921-0.375,4.209-1.127l0.713,1.541
	C74.619,40.066,72.817,40.457,70.793,40.457z"/>
<path fill="#FFFFFF" d="M88.756,24.909c-0.951,0-3.373,0-7.268,0c-0.031,1.334-0.046,3.281-0.046,5.842
	c3.266,0,5.627-0.03,7.084-0.092v1.771c-1.38-0.077-3.741-0.115-7.084-0.115c0,2.806,0.015,4.892,0.046,6.256
	c3.802,0,6.501-0.031,8.096-0.092l-0.782,1.725H79.35c0.061-2.085,0.092-4.807,0.092-8.165c0-3.588-0.031-6.501-0.092-8.74h9.407
	V24.909z"/>
<path fill="#FFFFFF" d="M102.855,23.966l-0.667,1.541c-1.073-0.613-2.3-0.92-3.68-0.92c-1.196,0-2.113,0.223-2.748,0.667
	c-0.637,0.445-0.955,1.028-0.955,1.748c0,0.644,0.199,1.188,0.598,1.633c0.445,0.506,1.227,1.02,2.346,1.541l1.955,0.897
	c1.304,0.598,2.234,1.257,2.795,1.978c0.56,0.721,0.84,1.641,0.84,2.76c0,1.35-0.564,2.461-1.691,3.335s-2.503,1.311-4.128,1.311
	c-2.009,0-3.788-0.383-5.336-1.15l0.713-1.61c1.563,0.797,3.082,1.196,4.554,1.196c1.119,0,2.024-0.265,2.715-0.793
	c0.689-0.529,1.035-1.162,1.035-1.897c0-0.782-0.204-1.426-0.61-1.932s-1.131-0.989-2.173-1.449l-2.254-1.012
	c-2.301-1.027-3.451-2.53-3.451-4.508c0-1.196,0.529-2.212,1.588-3.048C95.357,23.418,96.713,23,98.37,23
	C100.165,23,101.659,23.322,102.855,23.966z"/>
<path fill="#FFFFFF" d="M113.827,31.441c0,3.588,0.029,6.509,0.092,8.763h-2.209c0.077-2.254,0.115-5.175,0.115-8.763
	c0-2.836-0.03-5.014-0.092-6.532c-3.035,0-5.137,0.023-6.302,0.069l0.782-1.679h13.73v1.61c-0.951,0-2.967,0-6.049,0
	C113.849,26.412,113.827,28.589,113.827,31.441z"/>
<path fill="#FFFFFF" d="M132.133,24.909c-0.95,0-3.373,0-7.268,0c-0.031,1.334-0.046,3.281-0.046,5.842
	c3.267,0,5.628-0.03,7.084-0.092v1.771c-1.38-0.077-3.741-0.115-7.084-0.115c0,2.806,0.015,4.892,0.046,6.256
	c3.803,0,6.502-0.031,8.096-0.092l-0.781,1.725h-9.453c0.061-2.085,0.092-4.807,0.092-8.165c0-3.588-0.031-6.501-0.092-8.74h9.406
	V24.909z"/>
<path fill="#FFFFFF" d="M138.321,32.89c0,3.22,0.037,5.658,0.115,7.314h-2.209c0.062-2.085,0.092-4.807,0.092-8.165
	c0-3.603-0.03-6.517-0.092-8.74h4.025c2.162,0,3.833,0.387,5.014,1.161c1.182,0.774,1.771,1.906,1.771,3.393
	c0,1.089-0.314,2.024-0.943,2.806c-0.629,0.782-1.472,1.35-2.529,1.702c1.549,2.852,3.035,5.359,4.461,7.521l-2.185,0.667
	c-1.533-2.545-2.937-5.098-4.209-7.659C140.513,32.906,139.409,32.906,138.321,32.89z M140.137,24.909h-1.771
	c-0.031,1.012-0.046,3.144-0.046,6.394c0.275,0.015,0.896,0.023,1.863,0.023c3.143,0,4.715-1.127,4.715-3.381
	C144.899,25.921,143.311,24.909,140.137,24.909z"/>
<path fill="#FFFFFF" d="M220.937,8.441c0,3.588,0.03,6.509,0.092,8.763h-2.208c0.076-2.254,0.115-5.175,0.115-8.763
	c0-2.836-0.031-5.014-0.092-6.532c-3.036,0-5.137,0.023-6.303,0.069l0.782-1.679h13.731v1.61c-0.951,0-2.967,0-6.049,0
	C220.959,3.412,220.937,5.589,220.937,8.441z"/>
<path fill="#FFFFFF" d="M231.586,0.299c-0.078,2.438-0.115,4.907-0.115,7.406h9.683c0-2.499-0.038-4.968-0.114-7.406h2.207
	c-0.061,2.239-0.092,5.152-0.092,8.74c0,3.358,0.031,6.08,0.092,8.165h-2.207c0.076-2.024,0.114-4.646,0.114-7.866h-9.683
	c0,3.22,0.037,5.842,0.115,7.866h-2.209c0.062-2.085,0.092-4.807,0.092-8.165c0-3.588-0.03-6.501-0.092-8.74H231.586z"/>
<path fill="#FFFFFF" d="M256.61,1.909c-0.951,0-3.373,0-7.268,0c-0.031,1.334-0.047,3.281-0.047,5.842
	c3.266,0,5.627-0.03,7.084-0.092V9.43c-1.38-0.077-3.741-0.115-7.084-0.115c0,2.806,0.016,4.892,0.047,6.256
	c3.802,0,6.5-0.031,8.096-0.092l-0.782,1.725h-9.453c0.062-2.085,0.092-4.807,0.092-8.165c0-3.588-0.03-6.501-0.092-8.74h9.407
	V1.909z"/>
<path fill="#FFFFFF" d="M274.503,17.457c-2.515,0-4.608-0.767-6.278-2.3c-1.719-1.564-2.576-3.573-2.576-6.026
	c0-2.806,0.912-5.052,2.736-6.739C270.118,0.797,272.311,0,274.963,0c1.887,0,3.52,0.269,4.898,0.805l-0.666,1.61
	C278,1.878,276.65,1.61,275.147,1.61c-2.177,0-3.91,0.614-5.197,1.84c-1.365,1.273-2.047,3.036-2.047,5.29
	c0,2.07,0.67,3.776,2.012,5.117c1.342,1.342,3.032,2.013,5.072,2.013c1.518,0,2.92-0.375,4.209-1.127l0.713,1.541
	C278.329,17.066,276.528,17.457,274.503,17.457z"/>
<path fill="#FFFFFF" d="M284.739,0.299c-0.078,2.438-0.115,4.907-0.115,7.406h9.683c0-2.499-0.038-4.968-0.114-7.406h2.207
	c-0.061,2.239-0.092,5.152-0.092,8.74c0,3.358,0.031,6.08,0.092,8.165h-2.207c0.076-2.024,0.114-4.646,0.114-7.866h-9.683
	c0,3.22,0.037,5.842,0.115,7.866h-2.209c0.062-2.085,0.092-4.807,0.092-8.165c0-3.588-0.03-6.501-0.092-8.74H284.739z"/>
<path fill="#FFFFFF" d="M300.286,0.299h2.209c-0.078,2.239-0.115,5.804-0.115,10.695c0,1.61,0.498,2.837,1.494,3.68
	c0.875,0.751,2.032,1.127,3.474,1.127c1.456,0,2.599-0.353,3.427-1.058c0.967-0.828,1.449-2.078,1.449-3.749
	c0-4.891-0.031-8.456-0.092-10.695h1.978c-0.062,2.009-0.092,4.332-0.092,6.969c0,0.46,0.012,1.131,0.034,2.013
	c0.023,0.882,0.035,1.522,0.035,1.92c0,1.963-0.652,3.511-1.955,4.646c-1.242,1.073-2.867,1.61-4.877,1.61
	c-1.963,0-3.572-0.514-4.829-1.541c-1.396-1.119-2.093-2.675-2.093-4.669c0-0.444,0.008-1.1,0.022-1.966s0.022-1.537,0.022-2.013
	C300.377,5.076,300.347,2.752,300.286,0.299z"/>
<path fill="#FFFFFF" d="M320.088,9.89c0,3.22,0.039,5.658,0.115,7.314h-2.207c0.061-2.085,0.092-4.807,0.092-8.165
	c0-3.603-0.031-6.517-0.092-8.74h4.024c2.162,0,3.833,0.387,5.015,1.161c1.18,0.774,1.771,1.906,1.771,3.393
	c0,1.089-0.314,2.024-0.942,2.806c-0.629,0.782-1.473,1.35-2.531,1.702c1.549,2.852,3.037,5.359,4.463,7.521l-2.186,0.667
	c-1.533-2.545-2.936-5.098-4.209-7.659C322.282,9.906,321.178,9.906,320.088,9.89z M321.907,1.909h-1.771
	c-0.031,1.012-0.047,3.144-0.047,6.394c0.277,0.015,0.897,0.023,1.863,0.023c3.144,0,4.715-1.127,4.715-3.381
	C326.667,2.921,325.081,1.909,321.907,1.909z"/>
<path fill="#FFFFFF" d="M341.157,17.457c-2.514,0-4.607-0.767-6.278-2.3c-1.718-1.564-2.576-3.573-2.576-6.026
	c0-2.806,0.912-5.052,2.737-6.739C336.772,0.797,338.964,0,341.618,0c1.886,0,3.519,0.269,4.898,0.805l-0.667,1.61
	c-1.196-0.537-2.546-0.805-4.048-0.805c-2.178,0-3.91,0.614-5.198,1.84c-1.364,1.273-2.047,3.036-2.047,5.29
	c0,2.07,0.671,3.776,2.013,5.117c1.342,1.342,3.031,2.013,5.071,2.013c1.519,0,2.921-0.375,4.209-1.127l0.714,1.541
	C344.983,17.066,343.181,17.457,341.157,17.457z"/>
<path fill="#FFFFFF" d="M351.392,0.299c-0.077,2.438-0.115,4.907-0.115,7.406h9.683c0-2.499-0.038-4.968-0.114-7.406h2.208
	c-0.062,2.239-0.092,5.152-0.092,8.74c0,3.358,0.03,6.08,0.092,8.165h-2.208c0.076-2.024,0.114-4.646,0.114-7.866h-9.683
	c0,3.22,0.038,5.842,0.115,7.866h-2.208c0.061-2.085,0.092-4.807,0.092-8.165c0-3.588-0.031-6.501-0.092-8.74H351.392z"/>
<path fill="#FFFFFF" d="M212.859,31.967c0-2.745,0.866-4.96,2.599-6.647c1.625-1.564,3.649-2.346,6.072-2.346
	c2.545,0,4.619,0.774,6.222,2.323s2.403,3.619,2.403,6.21c0,2.745-0.852,4.945-2.553,6.601c-1.609,1.549-3.635,2.323-6.072,2.323
	c-2.561,0-4.646-0.767-6.256-2.3S212.859,34.543,212.859,31.967z M227.924,31.714c0-2.223-0.606-3.987-1.817-5.29
	c-1.165-1.242-2.69-1.863-4.577-1.863c-1.901,0-3.442,0.629-4.623,1.886c-1.195,1.303-1.794,3.059-1.794,5.267
	c0,2.239,0.613,4.002,1.841,5.29c1.164,1.242,2.69,1.863,4.576,1.863c1.916,0,3.461-0.636,4.635-1.909
	C227.337,35.685,227.924,33.937,227.924,31.714z"/>
<path fill="#FFFFFF" d="M233.582,32.013c0-3.588-0.03-6.501-0.092-8.74h9.407v1.61c-0.951,0-3.373,0-7.268,0
	c-0.031,1.334-0.047,3.412-0.047,6.233c3.266,0,5.627-0.031,7.084-0.092v1.748c-1.043-0.062-3.404-0.092-7.084-0.092
	c0,2.975,0.038,5.474,0.115,7.498h-2.208C233.551,38.093,233.582,35.371,233.582,32.013z"/>
<path fill="#FFFFFF" d="M261.619,24.883c-0.95,0-3.373,0-7.268,0c-0.031,1.334-0.046,3.281-0.046,5.842
	c3.266,0,5.627-0.03,7.084-0.092v1.771c-1.381-0.077-3.742-0.115-7.084-0.115c0,2.806,0.015,4.892,0.046,6.256
	c3.802,0,6.501-0.031,8.096-0.092l-0.782,1.725h-9.453c0.062-2.085,0.092-4.807,0.092-8.165c0-3.588-0.03-6.501-0.092-8.74h9.407
	V24.883z"/>
<path fill="#FFFFFF" d="M277.374,36.705c0-6.21-0.039-10.687-0.115-13.432h1.979c-0.062,2.254-0.092,5.167-0.092,8.74
	c0,3.358,0.029,6.08,0.092,8.165h-1.795c-4.385-6.21-7.819-10.971-10.304-14.283l0.023,8.786c0.015,1.717,0.046,3.55,0.092,5.497
	h-1.978c0.061-2.085,0.092-4.807,0.092-8.165c0-3.588-0.031-6.501-0.092-8.74h2.254C271.562,28.609,274.843,33.086,277.374,36.705z"
	/>
<path fill="#FFFFFF" d="M297.268,36.107c0,1.457,0.023,2.583,0.069,3.381c-1.549,0.629-3.512,0.943-5.888,0.943
	c-2.361,0-4.401-0.759-6.118-2.277c-1.825-1.61-2.737-3.603-2.737-5.98c0-2.745,0.866-4.964,2.6-6.659
	c1.732-1.694,4.062-2.542,6.992-2.542c1.824,0,3.541,0.33,5.151,0.989l-0.621,1.564c-1.549-0.629-2.998-0.943-4.347-0.943
	c-2.424,0-4.294,0.66-5.612,1.978c-1.272,1.258-1.909,2.975-1.909,5.152c0,2.131,0.721,3.879,2.162,5.244
	c1.35,1.273,2.982,1.909,4.898,1.909c1.365,0,2.438-0.138,3.221-0.414c0.046-0.613,0.068-1.502,0.068-2.668
	c0-1.257-0.022-2.185-0.068-2.783h2.208C297.292,33.922,297.268,34.957,297.268,36.107z"/>
<path fill="#FFFFFF" d="M303.385,32.013c0,2.852,0.016,5.029,0.047,6.532c3.848,0,6.547-0.031,8.096-0.092l-0.781,1.725h-9.453
	c0.061-2.085,0.092-4.807,0.092-8.165c0-3.588-0.031-6.501-0.092-8.74h2.207C303.424,25.512,303.385,28.425,303.385,32.013z"/>
<path fill="#FFFFFF" d="M314.288,40.178h-2c2.36-4.738,4.952-10.419,7.773-17.043h2.07c2.192,5.827,4.508,11.508,6.945,17.043H326.8
	c-0.552-1.288-1.296-3.089-2.231-5.405h-7.773L314.288,40.178z M320.913,25.228c-0.246,0.629-1.381,3.282-3.404,7.958h6.463
	C323.25,31.3,322.231,28.647,320.913,25.228z"/>
<path fill="#FFFFFF" d="M343.383,36.705c0-6.21-0.039-10.687-0.115-13.432h1.978c-0.062,2.254-0.092,5.167-0.092,8.74
	c0,3.358,0.03,6.08,0.092,8.165h-1.794c-4.385-6.21-7.82-10.971-10.305-14.283l0.023,8.786c0.016,1.717,0.047,3.55,0.092,5.497
	h-1.978c0.062-2.085,0.092-4.807,0.092-8.165c0-3.588-0.03-6.501-0.092-8.74h2.254C337.571,28.609,340.852,33.086,343.383,36.705z"
	/>
<path fill="#FFFFFF" d="M353.526,40.178h-5.037c0.061-2.085,0.092-4.807,0.092-8.165c0-3.588-0.031-6.501-0.092-8.74h4.99
	c3.113,0,5.543,0.652,7.291,1.955c1.81,1.35,2.715,3.312,2.715,5.888c0,2.852-0.852,5.068-2.554,6.647
	C359.183,39.373,356.714,40.178,353.526,40.178z M350.627,24.883c-0.031,1.135-0.047,3.358-0.047,6.67
	c0,3.22,0.016,5.543,0.047,6.969c0.26,0.015,1.157,0.023,2.691,0.023c5.351,0,8.026-2.338,8.026-7.015
	c0-2.192-0.721-3.849-2.162-4.968c-1.441-1.119-3.496-1.679-6.164-1.679H350.627z"/>
</svg>
